<svg xmlns="http://www.w3.org/2000/svg" width="318.426" height="266.086" viewBox="0 0 318.426 266.086"><defs><style>.a{opacity:0.41;}.b,.d{fill:#c5d9ff;}.c{opacity:0.88;}.d{opacity:0.31;}.e{fill:#7bc447;}.f,.l{fill:#243762;}.g{fill:#fff;}.h{fill:#0369b4;}.i,.n{fill:#ecf1f7;}.j{fill:#af9cda;opacity:0.33;}.k{fill:#cfdee9;}.l{opacity:0.29;}.m{fill:#f7a9b4;}.n{opacity:0.35;}</style></defs><g transform="translate(-167.129 -601.267)"><g class="a"><path class="b" d="M485.4,771.091a91.519,91.519,0,0,0-.42-15.6c-2.753-24.3-15.223-47.225-33.576-63.4-6.548-5.769-14-10.938-18.259-18.553-7.176-12.825-6.633-27.565-15.539-40.228a75.335,75.335,0,0,0-36.564-27.643c-43.691-15.139-104.861,9.511-99.353,62.152.019.189.041.463.064.811a19.161,19.161,0,0,1-18.772,20.387c-40.312.957-75.011,32.036-82.436,71.405-4.775,25.319,3.044,53.07,21.565,70.981,13.825,13.37,32.373,20.715,50.932,25.762,37.209,10.119,76.365,12.24,114.731,8.371,35.913-3.622,73.8-13.947,97.022-41.577A90.725,90.725,0,0,0,485.4,771.091Z"/></g><g class="c"><path class="b" d="M452.249,773.571a71.761,71.761,0,0,0-.329-12.219c-2.157-19.041-11.925-37-26.3-49.664-5.129-4.52-10.966-8.569-14.3-14.535-5.621-10.047-5.195-21.593-12.173-31.514A59.012,59.012,0,0,0,370.5,643.985c-34.227-11.86-82.147,7.45-77.832,48.689.015.147.032.363.051.635A15.012,15.012,0,0,1,278.01,709.28c-31.58.749-58.763,25.1-64.579,55.937-3.741,19.834,2.384,41.574,16.893,55.606,10.83,10.473,25.361,16.227,39.9,20.181,29.15,7.927,59.824,9.589,89.879,6.558,28.134-2.838,57.81-10.926,76.005-32.571A71.073,71.073,0,0,0,452.249,773.571Z"/></g><circle class="d" cx="9.859" cy="9.859" r="9.859" transform="matrix(0.231, -0.973, 0.973, 0.231, 455.022, 647.852)"/><circle class="d" cx="11.432" cy="11.432" r="11.432" transform="translate(234.192 629.102) rotate(-45)"/><circle class="d" cx="14.765" cy="14.765" r="14.765" transform="translate(167.129 833.934)"/><circle class="e" cx="52.33" cy="52.33" r="52.33" transform="translate(246.065 627.539)"/><path class="f" d="M334.73,717.555a.5.5,0,0,1-.353-.854,51.83,51.83,0,1,0-73.3-73.3.5.5,0,0,1-.707-.707,52.83,52.83,0,1,1,74.713,74.712A.5.5,0,0,1,334.73,717.555Z"/><circle class="g" cx="39.822" cy="39.822" r="39.822" transform="translate(258.573 640.048)"/><path class="f" d="M298.395,720.191a40.322,40.322,0,1,1,0-80.643.5.5,0,0,1,0,1,39.322,39.322,0,1,0,0,78.643.5.5,0,0,1,0,1Z"/><path class="f" d="M308.711,687.48H297.878a4.035,4.035,0,0,1-4.03-4.03V668.431a3.5,3.5,0,0,1,7,0V680.48h7.863a3.5,3.5,0,1,1,0,7Z"/><path class="h" d="M217.15,698.046l56.371,56.372a28.236,28.236,0,0,0,39.932,0l6.74-6.74a6.515,6.515,0,0,0,0-9.215l-23-23a6.515,6.515,0,0,0-9.215,0l-11.5,11.5a2.3,2.3,0,0,1-3.258,0l-27.9-27.9a2.276,2.276,0,0,1,0-3.216l11.342-11.342a6.515,6.515,0,0,0,0-9.215l-23.626-23.626a6.516,6.516,0,0,0-9.134-.079l-6.4,6.181A28.235,28.235,0,0,0,217.15,698.046Z"/><path class="i" d="M218.914,658.905,250.59,690.58l1.086-1.086,4.985-4.986a6.515,6.515,0,0,0,0-9.215l-23.626-23.626a6.516,6.516,0,0,0-9.134-.079l-6.4,6.181Z"/><path class="f" d="M250.59,691.287l-32.01-32.01-1.834-1.474,6.808-6.575a7.05,7.05,0,0,1,9.835.086l23.626,23.626a7.023,7.023,0,0,1,0,9.922Zm-32.334-33.553,1.012.817,31.322,31.322,5.718-5.718a6.016,6.016,0,0,0,0-8.508l-23.626-23.626a6.042,6.042,0,0,0-8.433-.073Z"/><path class="i" d="M283.351,722.255l31.676,31.676,1.086-1.086,4.985-4.986a6.515,6.515,0,0,0,0-9.215l-23.626-23.626a6.516,6.516,0,0,0-9.134-.08l-6.4,6.182Z"/><path class="f" d="M315.026,754.637l-32.009-32.009-1.835-1.474,6.809-6.576a7.053,7.053,0,0,1,9.835.086l23.626,23.627a7.018,7.018,0,0,1,0,9.922Zm-32.333-33.552,1.012.817,31.321,31.321,5.719-5.717a6.019,6.019,0,0,0,0-8.508l-23.626-23.627a6.046,6.046,0,0,0-8.434-.073Z"/><line class="i" x2="19.3" y2="19.301" transform="translate(221.341 655.17)"/><path class="f" d="M240.641,674.97a.5.5,0,0,1-.353-.146l-19.3-19.3a.5.5,0,1,1,.707-.707l19.3,19.3a.5.5,0,0,1-.354.854Z"/><line class="i" x2="19.3" y2="19.301" transform="translate(298.113 731.942)"/><path class="f" d="M317.414,751.742a.5.5,0,0,1-.354-.147l-19.3-19.3a.5.5,0,1,1,.707-.707l19.3,19.3a.5.5,0,0,1-.353.854Z"/><path class="h" d="M402.108,850.4l-73.9-10.93A15.294,15.294,0,0,1,315.318,822.1l26.5-179.183a15.293,15.293,0,0,1,17.367-12.891l73.9,10.93a15.294,15.294,0,0,1,12.891,17.367l-26.5,179.183A15.293,15.293,0,0,1,402.108,850.4Z"/><rect class="i" width="171.049" height="92.746" transform="translate(322.566 815.967) rotate(-81.586)"/><rect class="e" width="12.835" height="92.746" transform="translate(345.716 659.456) rotate(-81.586)"/><path class="i" d="M366.89,839.246a5.989,5.989,0,1,1,5.92-5.112A5.984,5.984,0,0,1,366.89,839.246Zm-.015-10.978a5.007,5.007,0,1,0,.741.055A5.142,5.142,0,0,0,366.875,828.268Z"/><path class="i" d="M380.148,645.142a1.814,1.814,0,0,1-.283-.021,1.925,1.925,0,1,1,2.186-1.623h0A1.927,1.927,0,0,1,380.148,645.142Zm0-2.851a.926.926,0,1,0,.917,1.062h0a.932.932,0,0,0-.917-1.062Z"/><path class="i" d="M409.95,649.55a1.971,1.971,0,0,1-.286-.021l-23.407-3.462a1.925,1.925,0,1,1,.563-3.809l23.408,3.462a1.925,1.925,0,0,1-.278,3.83Zm-23.412-6.313a.925.925,0,0,0-.135,1.841l23.408,3.462a.925.925,0,0,0,.27-1.831l-23.407-3.462A.9.9,0,0,0,386.538,643.237Z"/><path class="b" d="M414.693,777.766l-64-9.467a1.908,1.908,0,0,0-2.166,1.608l-2.455,16.6a1.906,1.906,0,0,0,1.607,2.166L402.4,796.77l5.637,7.776,1.005-6.793,2.641.391a1.908,1.908,0,0,0,2.166-1.608l2.456-16.6A1.906,1.906,0,0,0,414.693,777.766Z"/><path class="f" d="M402.4,797.27a.458.458,0,0,1-.074-.006L347.6,789.171a2.406,2.406,0,0,1-2.029-2.734l2.456-16.6a2.4,2.4,0,0,1,2.734-2.03l14.79,2.189a.5.5,0,1,1-.146.988l-14.791-2.188a1.414,1.414,0,0,0-1.6,1.187l-2.456,16.6a1.4,1.4,0,0,0,1.186,1.6l54.719,8.095a.5.5,0,0,1-.072.994Z"/><path class="b" d="M424.87,708.965l-64-9.467a1.908,1.908,0,0,0-2.166,1.608l-2.456,16.6a1.908,1.908,0,0,0,1.608,2.166l54.718,8.094,5.637,7.775,1-6.793,2.642.391a1.908,1.908,0,0,0,2.166-1.608l2.456-16.6A1.908,1.908,0,0,0,424.87,708.965Z"/><path class="f" d="M418.524,737.031l-6.233-8.6-54.511-8.062a2.41,2.41,0,0,1-2.029-2.734.5.5,0,0,1,.99.146,1.408,1.408,0,0,0,1.186,1.6l54.927,8.124,5.041,6.953.9-6.075,3.136.464a1.407,1.407,0,0,0,1.6-1.186l1.634-11.046a.5.5,0,0,1,.989.146l-1.634,11.046a2.406,2.406,0,0,1-2.733,2.029l-2.147-.317Z"/><path class="e" d="M343.858,730.359l64,9.466a1.908,1.908,0,0,1,1.608,2.166l-2.456,16.6a1.907,1.907,0,0,1-2.166,1.607l-54.719-8.093-7.646,5.81,1-6.793-2.641-.39a1.908,1.908,0,0,1-1.608-2.166l2.456-16.6A1.907,1.907,0,0,1,343.858,730.359Z"/><path class="f" d="M405.13,760.724a2.291,2.291,0,0,1-.358-.027l-34.157-5.052a.5.5,0,1,1,.147-.988l34.157,5.052a1.408,1.408,0,0,0,1.6-1.187l2.456-16.6a1.411,1.411,0,0,0-1.186-1.6.5.5,0,1,1,.146-.988,2.41,2.41,0,0,1,2.029,2.733l-2.456,16.6a2.405,2.405,0,0,1-2.376,2.055Z"/><rect class="g" width="15.738" height="92.746" transform="translate(322.566 815.967) rotate(-81.586)"/><path class="b" d="M338.409,810.217a5.58,5.58,0,1,1-4.7-6.337A5.58,5.58,0,0,1,338.409,810.217Z"/><path class="j" d="M406.074,825.341a4.913,4.913,0,0,1-.731-.055l-59.459-8.795a4.976,4.976,0,0,1,1.456-9.844l59.46,8.8a4.976,4.976,0,0,1-.726,9.9Zm-.584-1.043a3.976,3.976,0,0,0,3.774-6.3,3.946,3.946,0,0,0-2.611-1.563l-59.459-8.8a3.976,3.976,0,1,0-1.163,7.866Z"/><path class="g" d="M353.3,655.886a2.008,2.008,0,0,1-.288-.021,1.958,1.958,0,0,1-.88-3.509,1.933,1.933,0,0,1,1.453-.365,1.96,1.96,0,0,1,1.651,2.223h0A1.963,1.963,0,0,1,353.3,655.886Zm0-2.916a.958.958,0,0,0-.137,1.905.961.961,0,0,0,1.088-.807h0a.959.959,0,0,0-.808-1.088A.978.978,0,0,0,353.3,652.97Z"/><path class="g" d="M358.717,656.686a2.029,2.029,0,0,1-.291-.021,1.961,1.961,0,1,1,.291.021Zm-.005-2.916a.958.958,0,0,0-.14,1.906.959.959,0,0,0,1.088-.808h0a.958.958,0,0,0-.807-1.087A.965.965,0,0,0,358.712,653.77Z"/><path class="g" d="M364.022,657.471a1.874,1.874,0,0,1-.287-.021,1.959,1.959,0,1,1,.287.021Zm0-2.916a.958.958,0,0,0-.139,1.906.958.958,0,0,0,.281-1.9A.987.987,0,0,0,364.02,654.555Z"/><path class="f" d="M438.709,673.711a.465.465,0,0,1-.074-.006l-84.928-12.561a.5.5,0,1,1,.147-.989l84.927,12.561a.5.5,0,0,1-.072.995Z"/><path class="g" d="M403.3,781.591a.453.453,0,0,1-.073-.006l-45.314-6.7a.5.5,0,0,1-.422-.568.493.493,0,0,1,.568-.421l45.314,6.7a.5.5,0,0,1-.073.995Z"/><path class="g" d="M376.476,783.146a.475.475,0,0,1-.074-.006l-19.286-2.852a.5.5,0,0,1-.422-.568.5.5,0,0,1,.568-.42l19.287,2.852a.5.5,0,0,1-.073.994Z"/><path class="g" d="M369.978,787.356a.458.458,0,0,1-.074-.006l-13.536-2a.5.5,0,1,1,.146-.988l13.536,2a.5.5,0,0,1-.072.994Z"/><path class="g" d="M402.5,787a.468.468,0,0,1-.074-.006L382.5,784.043a.5.5,0,0,1,.147-.989L402.577,786a.5.5,0,0,1-.073.994Z"/><path class="g" d="M397.771,743.987a.465.465,0,0,1-.074-.006l-45.315-6.7a.5.5,0,0,1-.421-.567.493.493,0,0,1,.568-.421l45.314,6.7a.5.5,0,0,1-.072.994Z"/><path class="g" d="M370.943,745.543a.456.456,0,0,1-.073-.006l-19.287-2.853a.5.5,0,1,1,.147-.988l19.286,2.853a.5.5,0,0,1-.073.994Z"/><path class="g" d="M390.983,753.678a.5.5,0,0,1-.077-.005L351.8,747.6a.5.5,0,0,1,.154-.988l39.108,6.067a.5.5,0,0,1-.077.994Z"/><path class="g" d="M396.971,749.393a.465.465,0,0,1-.074-.006l-19.932-2.948a.5.5,0,1,1,.146-.988l19.932,2.948a.5.5,0,0,1-.072.994Z"/><path class="e" d="M352.077,667.939l64,9.466a1.908,1.908,0,0,1,1.608,2.166l-2.456,16.605a1.906,1.906,0,0,1-2.166,1.607l-54.719-8.093L350.7,695.5l1-6.792-2.642-.391a1.908,1.908,0,0,1-1.608-2.166l2.456-16.6A1.908,1.908,0,0,1,352.077,667.939Z"/><path class="f" d="M415.231,696.676a.456.456,0,0,1-.073-.006.5.5,0,0,1-.422-.568l2.456-16.6a1.408,1.408,0,0,0-1.186-1.6l-39.737-5.877a.5.5,0,0,1-.422-.568.509.509,0,0,1,.568-.422l39.737,5.878a2.409,2.409,0,0,1,2.03,2.734l-2.456,16.6A.5.5,0,0,1,415.231,696.676Z"/><path class="g" d="M405.99,681.568a.466.466,0,0,1-.074-.006l-45.314-6.7a.5.5,0,0,1,.146-.99l45.315,6.7a.5.5,0,0,1-.073.995Z"/><path class="g" d="M379.163,683.123a.616.616,0,0,1-.074-.005L359.8,680.265a.5.5,0,0,1,.147-.989l19.286,2.853a.5.5,0,0,1-.072.994Z"/><path class="g" d="M399.2,691.259a.486.486,0,0,1-.077-.006l-39.108-6.068a.5.5,0,0,1-.418-.57.506.506,0,0,1,.571-.418l39.108,6.067a.5.5,0,0,1-.076.995Z"/><path class="g" d="M405.19,686.973a.629.629,0,0,1-.074-.005l-19.932-2.949a.5.5,0,1,1,.147-.989l19.932,2.948a.5.5,0,0,1-.073.995Z"/><path class="g" d="M413.52,713.426a.629.629,0,0,1-.074-.005l-45.314-6.7a.5.5,0,1,1,.146-.989l45.315,6.7a.5.5,0,0,1-.073.995Z"/><path class="g" d="M386.693,714.982a.466.466,0,0,1-.074-.006l-19.286-2.853a.5.5,0,1,1,.146-.989l19.287,2.853a.5.5,0,0,1-.073.995Z"/><path class="g" d="M380.194,719.191a.457.457,0,0,1-.074-.005l-13.536-2a.5.5,0,0,1,.146-.989l13.537,2a.5.5,0,0,1-.073.994Z"/><path class="g" d="M412.72,718.831a.6.6,0,0,1-.073-.005l-19.933-2.948a.5.5,0,0,1,.147-.99l19.932,2.949a.5.5,0,0,1-.073.994Z"/><path class="k" d="M321.377,835.035,218.722,846.6a3.593,3.593,0,0,1-3.972-3.168l-7.41-65.764a.19.19,0,0,1,.167-.209l109.4-12.325a.189.189,0,0,1,.209.167l7.412,65.787A3.568,3.568,0,0,1,321.377,835.035Z"/><path class="f" d="M218.318,847.124a4.1,4.1,0,0,1-4.065-3.636l-7.41-65.763a.691.691,0,0,1,.608-.762l109.4-12.326a.686.686,0,0,1,.762.608l7.413,65.789a4.069,4.069,0,0,1-3.587,4.5L218.778,847.1A3.964,3.964,0,0,1,218.318,847.124Zm-10.446-69.2,7.375,65.455a3.088,3.088,0,0,0,3.42,2.727l102.654-11.566.056.5-.056-.5a3.068,3.068,0,0,0,2.706-3.393l-7.377-65.479Z"/><path class="l" d="M316.567,835.035,223.743,846.6c-1.972.222,28.764-39.2,28.542-41.175L207.34,777.669a.19.19,0,0,1,.167-.209l109.4-12.325a.189.189,0,0,1,.209.167l-37.423,37.037C279.909,804.3,318.525,834.814,316.567,835.035Z"/><path class="k" d="M207.507,777.46l45.238-44.739a8.216,8.216,0,0,1,10.109-1.154l53.77,33.395a.114.114,0,0,1-.048.21L207.319,777.481"/><path class="f" d="M207.376,777.978l-.083-.736-.137-.138.109-.107,0-.013.016,0,45.115-44.617a8.691,8.691,0,0,1,10.723-1.224l53.771,33.4a.614.614,0,0,1-.252,1.131Zm51.151-47.146a7.692,7.692,0,0,0-5.429,2.244L208.884,776.8l106.531-12L262.59,731.991A7.712,7.712,0,0,0,258.527,730.832Z"/><path class="l" d="M207.507,777.46l45.238-44.739a8.216,8.216,0,0,1,10.109-1.154l53.77,33.395a.114.114,0,0,1-.048.21L207.319,777.481" transform="translate(-0.48 -0.507)"/><path class="m" d="M257.748,798.531l-34,47.313,92.824-10.459-43.681-38.56A10.271,10.271,0,0,0,257.748,798.531Z"/><path class="f" d="M222.679,846.467l34.663-48.228.406.292-.406-.292a10.772,10.772,0,0,1,15.875-1.789l44.525,39.307Zm43.405-51.712a9.745,9.745,0,0,0-7.93,4.068l-33.348,46.4,90.586-10.206L272.555,797.2A9.79,9.79,0,0,0,266.084,794.755Z"/><path class="g" d="M213.03,745.049l71.5-8.056c4.687-.528,8.858,2.342,9.316,6.41l4.6,40.787-19.883,18.276-26.274,2.96-25.953-16.232-4.452-39.517Z"/><path class="f" d="M252.168,805.943,225.862,789.49,221.413,750l-6.809-5.63,69.87-7.872a9.685,9.685,0,0,1,6.584,1.566,7.407,7.407,0,0,1,3.286,5.285l4.623,41.04-20.19,18.557ZM226.8,788.9l25.6,16.012,25.938-2.923,19.577-17.993-4.567-40.535a6.413,6.413,0,0,0-2.859-4.572,8.687,8.687,0,0,0-5.9-1.4l-69.877,7.873,7.638,3.994Z"/><path class="l" d="M257.748,794.448l-34,51.4,92.824-10.459-43.681-42.642A10.271,10.271,0,0,0,257.748,794.448Z"/><path class="k" d="M257.748,798.531l-34,47.313,92.824-10.459-43.681-38.56A10.271,10.271,0,0,0,257.748,798.531Z"/><path class="f" d="M222.679,846.467l34.663-48.228.406.292-.406-.292a10.772,10.772,0,0,1,15.875-1.789l44.525,39.307Zm43.405-51.712a9.745,9.745,0,0,0-7.93,4.068l-33.348,46.4,90.586-10.206L272.555,797.2A9.79,9.79,0,0,0,266.084,794.755Z"/><path class="n" d="M261.043,809,236.07,843.749l68.17-7.681L272.161,807.75A7.544,7.544,0,0,0,261.043,809Z"/><line class="m" x2="44.737" y2="27.877" transform="translate(207.548 777.549)"/><rect class="f" width="1.001" height="52.712" transform="translate(207.283 777.974) rotate(-58.072)"/><line class="m" x1="37.412" y2="37.133" transform="translate(279.689 765.206)"/><rect class="f" width="52.712" height="0.999" transform="translate(279.342 801.99) rotate(-44.801)"/><path class="i" d="M223.86,767.889l-12.478,1.406-2.006-17.8a5.992,5.992,0,0,1,5.284-6.626l.568-.064a5.992,5.992,0,0,1,6.626,5.285Z"/><path class="f" d="M210.94,769.847l-2.061-18.3a6.492,6.492,0,0,1,5.725-7.179l.568-.064a6.493,6.493,0,0,1,7.179,5.726l2.062,18.3Zm4.97-24.584a5.49,5.49,0,0,0-.626.036l-.568.063a5.492,5.492,0,0,0-4.843,6.073l1.949,17.307,11.485-1.294-1.95-17.307a5.5,5.5,0,0,0-5.447-4.878Z"/><path class="f" d="M232.333,758.62a.5.5,0,0,1-.056-1l51.805-5.837a.5.5,0,1,1,.112.994l-51.8,5.837Z"/><path class="f" d="M234.317,776.231a.5.5,0,0,1-.056-1l51.805-5.836a.5.5,0,0,1,.112.994l-51.8,5.836Z"/><path class="f" d="M233.313,767.324a.5.5,0,0,1-.056-1l22.387-2.523a.5.5,0,0,1,.112.995l-22.386,2.522A.54.54,0,0,1,233.313,767.324Z"/><path class="f" d="M261.561,764.14a.5.5,0,0,1-.056-1l23.558-2.653a.5.5,0,0,1,.112.994l-23.557,2.653Z"/><path class="f" d="M235.442,786.219a.5.5,0,0,1-.056-1l22.387-2.522a.5.5,0,0,1,.553.441.5.5,0,0,1-.441.553L235.5,786.216A.554.554,0,0,1,235.442,786.219Z"/></g></svg>