<svg xmlns="http://www.w3.org/2000/svg" width="67.825" height="67.802" viewBox="0 0 67.825 67.802"><defs><style>.a{fill:#7bc447;}</style></defs><g transform="translate(-0.001 -0.087)"><path class="a" d="M15.213,319.523h-7.3a33.993,33.993,0,0,0,24.9,24.55V336.8a26.989,26.989,0,0,1-17.6-17.279Z" transform="translate(-6.861 -277.12)"/><path class="a" d="M6.2,32.625h7.239A26.989,26.989,0,0,1,31.327,14.41V7.138A33.807,33.807,0,0,0,6.2,32.625Z" transform="translate(-5.378 -6.117)"/><path class="a" d="M333.754,32.625h7.241A33.808,33.808,0,0,0,315.866,7.138v7.273a26.991,26.991,0,0,1,17.888,18.215Z" transform="translate(-274.022 -6.117)"/><path class="a" d="M315.865,336.8v7.271a33.99,33.99,0,0,0,24.9-24.55h-7.3A26.989,26.989,0,0,1,315.865,336.8Z" transform="translate(-274.021 -277.12)"/><path class="a" d="M225.874.314V7.387a26.668,26.668,0,0,1,7.948,0V.314a34.961,34.961,0,0,0-7.948,0Z" transform="translate(-195.952 0)"/><path class="a" d="M225.874,456.8v7.073a34.767,34.767,0,0,0,7.948,0V456.8A26.1,26.1,0,0,1,225.874,456.8Z" transform="translate(-195.952 -396.215)"/><path class="a" d="M463.324,229.531h-7.059a26.9,26.9,0,0,1-.139,7.948h7.088A34.887,34.887,0,0,0,463.324,229.531Z" transform="translate(-395.702 -199.049)"/><path class="a" d="M7.231,229.531H.172a35.5,35.5,0,0,0,.11,7.948H7.37A26.98,26.98,0,0,1,7.231,229.531Z" transform="translate(0 -199.049)"/></g></svg>