<svg xmlns="http://www.w3.org/2000/svg" width="67.898" height="67.902" viewBox="0 0 67.898 67.902"><defs><style>.a{fill:#7bc447;}</style></defs><g transform="translate(-0.013 0)"><g transform="translate(0.013 0)"><g transform="translate(0 0)"><path class="a" d="M66.78,61.112a6.293,6.293,0,0,0-4.943,2.634c-.958,1.057-1.716,1.892-3.266,1.892S56.262,64.8,55.3,63.747a6.289,6.289,0,0,0-4.942-2.634,5.383,5.383,0,0,0-2.49.571L42.059,21.5h2.088a1.132,1.132,0,0,0,0-2.263H40.752V10.188H43.9a1.116,1.116,0,0,0,.248-.028c.034-.008.059-.031.091-.041a1.052,1.052,0,0,0,.208-.094.973.973,0,0,0,.174-.113,1.06,1.06,0,0,0,.147-.155,1.167,1.167,0,0,0,.12-.179,1.119,1.119,0,0,0,.076-.195,1.083,1.083,0,0,0,.045-.226.9.9,0,0,0,.021-.1,1.122,1.122,0,0,0-.024-.122,1.2,1.2,0,0,0,0-.128,11.324,11.324,0,0,0-22.081,0,1.2,1.2,0,0,0,0,.128,1.134,1.134,0,0,0-.031.122.891.891,0,0,0,.019.1,1.082,1.082,0,0,0,.045.226,1.119,1.119,0,0,0,.076.195,1.168,1.168,0,0,0,.12.179,1.059,1.059,0,0,0,.147.155,1.016,1.016,0,0,0,.174.113,1.052,1.052,0,0,0,.208.094c.032.01.057.033.091.041a.93.93,0,0,0,.126,0,1.13,1.13,0,0,0,.126.033h3.146v9.053H23.777a1.132,1.132,0,0,0,0,2.263h2.088L20.043,61.691a5.4,5.4,0,0,0-2.5-.579,6.282,6.282,0,0,0-4.938,2.636c-.957,1.056-1.713,1.891-3.263,1.891s-2.3-.834-3.261-1.891a6.285,6.285,0,0,0-4.94-2.636,1.132,1.132,0,1,0,0,2.263c1.549,0,2.305.835,3.263,1.891A6.282,6.282,0,0,0,9.346,67.9a6.285,6.285,0,0,0,4.94-2.636c.957-1.057,1.713-1.891,3.261-1.891s2.305.835,3.263,1.891A6.282,6.282,0,0,0,25.748,67.9a6.286,6.286,0,0,0,4.941-2.636c.957-1.057,1.714-1.891,3.263-1.891s2.306.835,3.265,1.891a5.95,5.95,0,0,0,9.883,0c.957-1.057,1.714-1.891,3.263-1.891s2.307.835,3.266,1.891a5.955,5.955,0,0,0,9.887,0c.958-1.056,1.716-1.891,3.266-1.891a1.132,1.132,0,1,0,0-2.263ZM25.569,7.925a9.053,9.053,0,0,1,16.787,0Zm12.92,2.263v9.053H29.436V10.188ZM28.151,21.5H39.773l1.471,10.185H26.678Zm-1.8,12.448H41.575l.982,6.79H25.367Zm-1.31,9.053H42.885l.982,6.79H24.057ZM45.421,63.747c-.957,1.057-1.714,1.892-3.264,1.892s-2.306-.835-3.265-1.891a5.949,5.949,0,0,0-9.881,0c-.957,1.056-1.714,1.891-3.264,1.891s-2.3-.834-3.261-1.891c-.124-.138-.253-.281-.387-.423l1.63-11.265H44.2l1.627,11.25C45.685,63.457,45.55,63.6,45.421,63.747Z" transform="translate(-0.013 0)"/></g></g><g transform="translate(48.673 13.583)"><path class="a" d="M358.724,96.024h-13.58a1.132,1.132,0,1,0,0,2.263h13.58a1.132,1.132,0,0,0,0-2.263Z" transform="translate(-344.013 -96.024)"/></g><g transform="translate(47.613 2.836)"><path class="a" d="M350.386,20.621a1.132,1.132,0,0,0-1.543-.425l-11.76,6.79a1.132,1.132,0,1,0,1.132,1.96l11.76-6.79A1.132,1.132,0,0,0,350.386,20.621Z" transform="translate(-336.517 -20.049)"/></g><g transform="translate(47.604 17.54)"><path class="a" d="M427.637,188.024Z" transform="translate(-414.739 -178.967)"/><path class="a" d="M349.917,130.941l-11.76-6.79-.013-.007a1.132,1.132,0,1,0-1.119,1.967l11.76,6.79a1.132,1.132,0,0,0,1.132-1.96Z" transform="translate(-336.453 -123.996)"/></g><g transform="translate(3.408 13.583)"><path class="a" d="M38.724,96.024H25.145a1.132,1.132,0,1,0,0,2.263h13.58a1.132,1.132,0,1,0,0-2.263Z" transform="translate(-24.013 -96.024)"/></g><g transform="translate(6.282 2.829)"><path class="a" d="M57.8,26.942l-11.759-6.79-.013-.007a1.132,1.132,0,0,0-1.119,1.968L56.665,28.9a1.132,1.132,0,0,0,1.132-1.96Z" transform="translate(-44.333 -19.996)"/></g><g transform="translate(6.29 17.54)"><path class="a" d="M58.263,124.556a1.132,1.132,0,0,0-1.549-.4l-11.759,6.79a1.132,1.132,0,1,0,1.132,1.96l11.759-6.79.013-.007A1.132,1.132,0,0,0,58.263,124.556Z" transform="translate(-44.39 -123.996)"/></g></g></svg>