<svg xmlns="http://www.w3.org/2000/svg" width="67.802" height="67.802" viewBox="0 0 67.802 67.802"><defs><style>.a{fill:#7bc447;}</style></defs><path class="a" d="M66.393,21.6c-4.226-1.53-8.13-1.3-10.606.541A13.941,13.941,0,0,0,44.251,16c-6.759,0-9.768,3.789-10.791,5.522a12.835,12.835,0,0,0-4.427.155c-2.631.584-6.041,2.379-7.349,7.609s.857,8.419,2.9,10.172a12.731,12.731,0,0,0,4.7,2.5,1.13,1.13,0,0,0,1.4-1.19,9.137,9.137,0,0,1,2.321-7.508c4.106-4.181,12.218-3.706,12.3-3.7h.023c.623.028,1.245.08,1.856.154a54.947,54.947,0,0,1,2.79,11.7,8.457,8.457,0,0,0-4.995,1A9.631,9.631,0,0,0,42.8,44.046c-1.67-.592-5.7-1.7-9.006-.086a8.07,8.07,0,0,0-4.2,5.667c-.722,2.886-.366,5.273,1.055,7.094,2.586,3.312,7.733,3.351,7.951,3.351a1.133,1.133,0,0,0,1.118-1.3,7.363,7.363,0,0,1,.313-3.015,5.4,5.4,0,0,1,4.441-3.622,7.379,7.379,0,0,1,5.034,1.2,23.388,23.388,0,0,1-8.382,13.409c-5.549,4.414-13.655,7.112-24.093,8.02A1.13,1.13,0,0,0,16,75.892v6.78a1.13,1.13,0,0,0,1.13,1.13H74.762a1.131,1.131,0,0,0,.85-.386,22.988,22.988,0,0,0,3.059-5.186A59.208,59.208,0,0,0,83.1,61.622,93.227,93.227,0,0,0,83.8,49.9a32.713,32.713,0,0,0-5.6-18.912A25.3,25.3,0,0,0,66.393,21.6Zm-21.1,28.2a6.472,6.472,0,0,0-1.265.119,7.564,7.564,0,0,0-6.173,5.216,9.492,9.492,0,0,0-.433,2.572c-1.406-.192-3.725-.752-5-2.388-.967-1.244-1.182-2.976-.639-5.148a5.852,5.852,0,0,1,2.995-4.18c3.246-1.59,7.836.4,7.88.419a1.136,1.136,0,0,0,1.36-.35,6.583,6.583,0,0,1,7.72-1.893,5.979,5.979,0,0,1,3.832,6.639,1.13,1.13,0,0,0,1.554,1.26,4.2,4.2,0,0,1,3.589.283c1.8,1.185,2.746,4.244,2.746,8.849,0,5.3-2.345,10.335-6.971,14.978a34.79,34.79,0,0,1-2.908,2.6,33.365,33.365,0,0,0,4.158-12.075,16.21,16.21,0,0,0-2.362-10.959C52.753,51.826,48.483,49.8,45.294,49.8ZM18.26,76.921c10.4-1.034,18.557-3.861,24.272-8.407a25.491,25.491,0,0,0,8.95-13.744A11.752,11.752,0,0,1,53.5,57a13.805,13.805,0,0,1,1.994,9.452c-.5,4.471-2.582,9.544-6.2,15.086H18.26Zm55.947,4.621H53.7a37.931,37.931,0,0,0,4.346-3.721c5.022-5.022,7.676-10.769,7.676-16.62,0-5.478-1.266-9.09-3.762-10.736a5.961,5.961,0,0,0-4.061-.887,9.078,9.078,0,0,0-.262-1.928,7.952,7.952,0,0,0-5.055-5.578c-.091-.036-.181-.071-.271-.1a55.946,55.946,0,0,0-2.6-11.848c16.653,3.188,24.552,14.921,31.1,31.5C79.2,73.928,75.311,80.022,74.207,81.542ZM81.3,56.862c-3.534-8.176-7.133-13.967-11.418-18.445-5.734-5.99-12.83-9.539-21.7-10.85h0a27.272,27.272,0,0,0-2.737-.265c-.524-.033-9.247-.509-14.042,4.367a10.749,10.749,0,0,0-3.021,7.546A10.155,10.155,0,0,1,26,37.7c-2.23-1.944-2.945-4.589-2.127-7.861s2.694-5.269,5.576-5.935a10.563,10.563,0,0,1,4.354-.023A1.13,1.13,0,0,0,35.13,23.2c.02-.049,2.058-4.94,9.121-4.94a11.877,11.877,0,0,1,10.29,6.156,1.13,1.13,0,0,0,1.879.218c1.674-2.008,5.2-2.355,9.2-.905A23.029,23.029,0,0,1,76.35,32.285,30.468,30.468,0,0,1,81.542,49.9C81.542,52.287,81.458,54.613,81.3,56.862Z" transform="translate(-16 -16)"/></svg>