<svg xmlns="http://www.w3.org/2000/svg" xmlns:xlink="http://www.w3.org/1999/xlink" width="77.403" height="71.462" viewBox="0 0 77.403 71.462"><defs><style>.a{fill:#7bc447;}.b{fill:#fff;font-size:26px;font-family:Roboto-Black, Roboto;font-weight:800;}.c{filter:url(#a);}</style><filter id="a" x="0" y="0" width="77.403" height="71.462" filterUnits="userSpaceOnUse"><feOffset input="SourceAlpha"/><feGaussianBlur stdDeviation="3" result="b"/><feFlood flood-color="#7bc447" flood-opacity="0.259"/><feComposite operator="in" in2="b"/><feComposite in="SourceGraphic"/></filter></defs><g transform="translate(-1571.597 -957.769)"><g transform="translate(1580.597 966.769)"><g class="c" transform="matrix(1, 0, 0, 1, -9, -9)"><path class="a" d="M57.015,36.763a20.645,20.645,0,0,0-6.594-7.7c-5.08-3.637-12.245-5.56-20.72-5.56s-15.64,1.923-20.72,5.56a20.645,20.645,0,0,0-6.594,7.7A24.915,24.915,0,0,0,0,47.874c0,9,3.746,15.886,10.861,20.028a24.307,24.307,0,0,1-2.273,5.545l-2.2,3.509,4.172.006h.049A18.068,18.068,0,0,0,22.874,71.8a50.149,50.149,0,0,0,6.827.449c8.475,0,15.64-1.923,20.72-5.56a20.645,20.645,0,0,0,6.594-7.7A24.915,24.915,0,0,0,59.4,47.874,24.914,24.914,0,0,0,57.015,36.763Z" transform="translate(9 -14.5)"/></g></g><text class="b" transform="translate(1604.299 1002)"><tspan x="0" y="0">?</tspan></text></g></svg>