<svg xmlns="http://www.w3.org/2000/svg" width="60.659" height="60.629" viewBox="0 0 60.659 60.629"><defs><style>.a{fill:#7bc447;}</style></defs><g transform="translate(569.465 -1041.074)"><path class="a" d="M-538.266,1055.723a18.408,18.408,0,0,1,12.766-7.937,26.8,26.8,0,0,1,8.753.114c1.087.184,1.4.833.784,1.713a21.216,21.216,0,0,1-2.6,3.382,6.986,6.986,0,0,1-2.694,1.238,3.257,3.257,0,0,0-2.1,1.245,2.059,2.059,0,0,1-2.489.8c-.677-.217-.93.083-1.307.648-.456.685-1.224,1.606-1.883,1.627-1.658.054-3.109.245-4.107,1.831.255.137.625.329.989.532a18.2,18.2,0,0,1,8.363,9.517,1.931,1.931,0,0,1-.024,1.545c-.2.291-.943.334-1.424.283-1.576-.168-3.141-.443-4.713-.649a2.9,2.9,0,0,1-2.693-2.121,1.244,1.244,0,0,0-1.378-1.065,2.507,2.507,0,0,1-2.545-1.9c-.254-.77-.643-1.193-1.3-1.013-.854,4.072-1.459,8.106-2.583,11.989s-2.766,7.607-4.121,11.241c2.7.527,5.59,1.086,8.479,1.663a9.994,9.994,0,0,1,1.279.395c2.9,1,2.9,1,5.708-.683-.318-.747-.655-1.511-.97-2.284-.5-1.236-.162-1.777,1.16-1.786,2.4-.016,4.8,0,7.295,0V1084.1c-2.29,0-4.6.031-6.907-.023-.555-.013-1.471-.187-1.571-.5a2.318,2.318,0,0,1,.442-1.705c2.6-3.839,5.26-7.643,7.906-11.454.931-1.341,1.445-1.36,2.372-.089,2.351,3.222,4.708,6.44,7.022,9.689.3.418.641,1.205.457,1.471a2.132,2.132,0,0,1-1.527.622c-1.989.069-3.982.027-6.057.027v3.91c2.373,0,4.722,0,7.072,0,1.641,0,1.947.491,1.3,2.026q-.544,1.289-1.076,2.583c-.011.026.028.073.164.4a14.244,14.244,0,0,1,1.4-1.6,1.44,1.44,0,0,1,1.153-.36,1.328,1.328,0,0,1,.63,1.028c.047,3.462.028,6.924.028,10.387,0,.995-.612,1.19-1.458,1.188-4.889-.013-9.777,0-14.666,0l-42.654,0c-1.764,0-1.857-.095-1.858-1.877,0-3.1.029-6.192-.019-9.287-.018-1.171.442-1.6,1.593-1.57,2.321.053,4.645.061,6.965-.008a3.055,3.055,0,0,0,1.74-.626,47.923,47.923,0,0,0,10.063-12.036c2.616-4.238,4.979-8.633,7.464-12.978l-3.177-.145c-.736.94-1.427,2.66-3.443,1.868-1.038,2.258-1.487,2.508-3.788,1.918a1.134,1.134,0,0,0-1.543.573c-1.007,1.631-4.318,2-5.67.641a1.787,1.787,0,0,1-.032-1.6c3.431-6.878,9.455-10.016,17.177-8.926a3.773,3.773,0,0,0-3.088-1.888c-1.954-.216-2.693-.922-2.7-2.858,0-.9-.367-1.085-1.173-1.091-1.884-.013-2.724-.869-2.744-2.783-.008-.743-.206-1.046-1-1.179a2.332,2.332,0,0,1-1.948-2.452c-.025-1.018-.009-2.036-.009-3.055s.511-1.446,1.484-1.2C-545.611,1043.119-539.975,1047.246-538.266,1055.723Zm-29.188,43.915h51.25c-6.449-2.44-12.912-4.739-19.388-7a31.062,31.062,0,0,0-10.3-1.7q-10.141,0-20.282,0h-1.28Zm27.244-34.978c-4.454,8.734-9.232,17.228-16.385,24.171a1.467,1.467,0,0,0,.337.135,53.023,53.023,0,0,1,6.1.066c2.312.28,3.4-.623,4.337-2.689A61.737,61.737,0,0,0-540.21,1064.66Zm3.134-6.985c.788.156,1.6.338,2.411.465.336.052.909.111,1-.05.894-1.528,2.339-1.365,3.771-1.413a1.473,1.473,0,0,0,1.024-.727,2.566,2.566,0,0,1,3.122-1.692c.323.034.872,0,.963-.179a3.378,3.378,0,0,1,2.933-1.708c1.689-.192,2.474-1.313,3.231-2.613C-525.753,1048.5-534.082,1051.337-537.076,1057.675Zm26.262,34.816c-1.436,1.332-2.725,1.106-4.093.042a3.19,3.19,0,0,0-3.68-.229,5.7,5.7,0,0,1-6.115-.146,3.612,3.612,0,0,0-4.588.59l18.476,6.546Zm-42-49.055a9.1,9.1,0,0,0,.029,1.7,1.2,1.2,0,0,0,.645.8c1.769.567,2.179,1.03,2.252,2.95.024.632.171.951.885,1,2.368.165,2.826.682,3.067,3a1.4,1.4,0,0,0,.815.871,16.158,16.158,0,0,1,2.09.567,30.03,30.03,0,0,1,2.828,2.059C-540.737,1050.088-545.945,1044.976-552.817,1043.436Zm11.51,16.568c-6.414-2.023-13.273,1.05-15.652,6.847a1.4,1.4,0,0,0,1.968-.831,2.094,2.094,0,0,1,2.642-1.168c.583.134,1.163.285,1.787.439.418-1.173.851-2.374,2.278-2.2a1.62,1.62,0,0,0,1.8-1.006c.469-.792,1.286-1.47,2.1-1.086C-542.987,1061.656-542.3,1060.808-541.307,1060Zm3.25.81a10.878,10.878,0,0,0,.033,1.938,1.134,1.134,0,0,0,.7.769,3.079,3.079,0,0,1,2.583,2.114,1.465,1.465,0,0,0,1,.811,3.006,3.006,0,0,1,2.949,2.282,1.466,1.466,0,0,0,.869.859c1.211.248,2.451.354,3.893.542A17.278,17.278,0,0,0-538.057,1060.813Zm24.763,27.283h-14.4c.118,1.144.643,1.562,1.755,1.627a6.751,6.751,0,0,1,2.483.883,3.339,3.339,0,0,0,3.266.255,6.348,6.348,0,0,1,5.875-.4Zm-8.279-14.081-.213-.092-5.606,8.144h5.818Zm6.888,6.116-4.791-6.558v6.558Z" transform="translate(0 0)"/><path class="a" d="M-558.455,1088.431c-3.608,3.483-3.779,2.618-6.319.24l-1.925,2.381-1.629-1.671a15.243,15.243,0,0,1,3.2-2.531c1.6-.685,2.272,1.162,3.384,1.868,1.117-.667,1.751-2.5,3.287-1.879,1.237.5,2.214,1.643,3.451,2.614l-1.673,1.412Z" transform="translate(-0.859 -34.474)"/></g></svg>