<svg xmlns="http://www.w3.org/2000/svg" width="55.578" height="55.578" viewBox="0 0 55.578 55.578"><defs><style>.a{fill:#7bc447;}</style></defs><g transform="translate(0 0)"><path class="a" d="M54.764,221.536H51.411v-12.7a.814.814,0,1,0-1.628,0v12.7H42.639V193.558h7.144v11.477a.814.814,0,1,0,1.628,0V192.744a.814.814,0,0,0-.814-.814H41.825a.814.814,0,0,0-.814.814v28.792H39.13V197.13a.814.814,0,0,0-.814-.814H29.543a.814.814,0,0,0-.814.814v24.406H26.849V203.71a.814.814,0,0,0-.814-.814H17.262a.814.814,0,0,0-.814.814v17.827H14.567V208.973a.814.814,0,0,0-.814-.814H4.981a.814.814,0,0,0-.814.814v12.563H.814A.814.814,0,0,0,0,222.35v3.509a.814.814,0,0,0,.814.814H9.607a.814.814,0,0,0,0-1.628H1.628v-1.881H53.95v1.881H13.406a.814.814,0,0,0,0,1.628H54.764a.814.814,0,0,0,.814-.814V222.35a.814.814,0,0,0-.814-.814ZM30.358,197.944H37.5v23.592H30.358Zm-12.281,6.579H25.22v17.012H18.076ZM5.8,209.787h7.144v11.749H5.8Z" transform="translate(0 -171.096)"/><path class="a" d="M38.194,29.7h12.39a2.575,2.575,0,0,0,1.894-.833L62.57,17.857h6.875a2.552,2.552,0,0,0,1.816-.752L79.6,8.769v2.572a.814.814,0,0,0,.814.814h3.508a.814.814,0,0,0,.814-.814V2.568A2.571,2.571,0,0,0,82.165,0H73.393a.814.814,0,0,0-.814.814V4.324a.814.814,0,0,0,.814.814h2.571L68.381,12.72H61.44a2.574,2.574,0,0,0-1.893.833L49.454,24.563H47.209a.814.814,0,0,0,0,1.628h2.6a.814.814,0,0,0,.6-.264L60.748,14.653a.942.942,0,0,1,.693-.3h7.278a.814.814,0,0,0,.576-.238L78.5,4.9a.814.814,0,0,0-.576-1.39H74.207V1.628h7.958a.941.941,0,0,1,.94.94v7.959h-1.88V6.8a.814.814,0,0,0-1.39-.576L70.11,15.953a.934.934,0,0,1-.665.275H62.212a.814.814,0,0,0-.6.264L51.278,27.766a.943.943,0,0,1-.694.3H39.008v-1.88h4.4a.814.814,0,1,0,0-1.628H38.194a.814.814,0,0,0-.814.814v3.508a.814.814,0,0,0,.814.814Z" transform="translate(-33.322 0)"/></g></svg>