<svg xmlns="http://www.w3.org/2000/svg" width="66.295" height="66.426" viewBox="0 0 66.295 66.426"><defs><style>.a{fill:#7bc447;}</style></defs><g transform="translate(-5.839 -5.344)"><path class="a" d="M43.137,84.355a.794.794,0,0,0,1.02-.471,23.876,23.876,0,0,1,6.959-9.934.794.794,0,1,0-1.027-1.212,25.469,25.469,0,0,0-7.423,10.6A.794.794,0,0,0,43.137,84.355Z" transform="translate(-31.909 -58.307)"/><path class="a" d="M113.709,58.948a.791.791,0,0,0,.445-.137c.226-.153.458-.3.688-.45A.794.794,0,1,0,114,57.016c-.246.155-.494.316-.735.479a.794.794,0,0,0,.446,1.452Z" transform="translate(-92.896 -44.724)"/><path class="a" d="M63.685,58.425a.794.794,0,0,0-1.123,0l-.6.6-.788-.788A12.9,12.9,0,0,0,61.7,43.463,28.719,28.719,0,1,0,43.74,61.275a12.9,12.9,0,0,0,14.86-.466l.788.788-.6.6a.794.794,0,0,0,0,1.124l7.435,7.435a3.439,3.439,0,0,0,2.448,1.014h0a3.462,3.462,0,0,0,2.448-5.91ZM52.42,13.628a27.162,27.162,0,0,1,8.388,27.293L59.628,41a12.908,12.908,0,0,0-13.894-2.4,1.394,1.394,0,0,1,.449-.866l4.909-4.349a5.646,5.646,0,0,0,1.655-5.857A5.746,5.746,0,0,0,47.955,23.5l-.5-.061a1.636,1.636,0,0,1-1.033-.546.578.578,0,0,1-.079-.652l1.031-1.763a34.619,34.619,0,0,1,4.382-5.932ZM21.5,10.224l3.208,2.412a9.552,9.552,0,0,0,.913.607,8.03,8.03,0,0,1,2.526,2.339l1.9,2.734a2.179,2.179,0,0,1-.065,2.581L29.1,22.038a1.232,1.232,0,0,1-1.129.469l-1-.127a4.4,4.4,0,0,0-4.363,2.154,1.267,1.267,0,0,1-1.252.588l-2.282-.29a4.515,4.515,0,0,0-4.33,1.957,4.1,4.1,0,0,0-.07,4.5l1.522,2.4a3.888,3.888,0,0,0,5.1,1.342l1.566-.839a2.1,2.1,0,0,1,2.057.05L27.9,36.024a1.52,1.52,0,0,0,.824.217,3.4,3.4,0,0,1,2.807,1.5l1.455,2.028c.114.159.237.316.364.466l1.9,2.239a.176.176,0,0,1,.041.149.237.237,0,0,1-.095.133l-2.858,2.2a5.412,5.412,0,0,0-1.886,2.713l-.961,3.117a1.157,1.157,0,0,1-.218.4l-.935,1.125a6.112,6.112,0,0,0-1.415,3.355.69.69,0,0,1-.366.549l-.87-5.224a4.891,4.891,0,0,0-.932-2.154L21.53,44.6a2.955,2.955,0,0,1-.5-1.006l-1.065-3.843a4.842,4.842,0,0,0-3.377-3.363l-.232-.063a2.19,2.19,0,0,1-.922-.516l-1.987-1.87a3.7,3.7,0,0,1-.661-.831A5.228,5.228,0,0,0,7.6,30.556,27.213,27.213,0,0,1,21.5,10.224Zm13.03,50.969A27.183,27.183,0,0,1,7.383,34.041c0-.62.023-1.236.064-1.846l.133-.026a3.634,3.634,0,0,1,3.835,1.743,5.294,5.294,0,0,0,.944,1.187l1.987,1.87a3.785,3.785,0,0,0,1.593.892l.232.063a3.245,3.245,0,0,1,2.263,2.254L19.5,44.021a4.536,4.536,0,0,0,.768,1.545L23.494,49.8a3.3,3.3,0,0,1,.628,1.451L25,56.512a1.543,1.543,0,0,0,2.12,1.191,2.276,2.276,0,0,0,1.389-1.9,4.529,4.529,0,0,1,1.053-2.484L30.5,52.2a2.735,2.735,0,0,0,.514-.95l.961-3.117a3.832,3.832,0,0,1,1.335-1.921l2.858-2.194a1.8,1.8,0,0,0,.7-1.143,1.773,1.773,0,0,0-.4-1.43L34.56,39.2c-.1-.117-.2-.24-.284-.364l-1.455-2.028a4.99,4.99,0,0,0-4.12-2.161l-2.957-1.774a3.692,3.692,0,0,0-3.625-.088l-1.566.839a2.292,2.292,0,0,1-3.008-.791l-1.522-2.4a2.513,2.513,0,0,1,.043-2.755,2.934,2.934,0,0,1,2.814-1.272l2.283.29a2.837,2.837,0,0,0,2.827-1.366,2.809,2.809,0,0,1,2.787-1.376l1,.128a2.83,2.83,0,0,0,2.588-1.075l.879-1.141a3.762,3.762,0,0,0,.112-4.456l-1.9-2.734a9.626,9.626,0,0,0-3.029-2.8,8.015,8.015,0,0,1-.761-.506L23.084,9.424a27.1,27.1,0,0,1,28.109,3.189l-.638.89A36.207,36.207,0,0,0,46,19.673l-1.035,1.77a2.162,2.162,0,0,0,.259,2.493,3.221,3.221,0,0,0,2.033,1.077l.5.061a4.15,4.15,0,0,1,3.462,2.913,4.055,4.055,0,0,1-1.194,4.206l-4.895,4.349a3.03,3.03,0,0,0-1,2.289v.6a12.916,12.916,0,0,0-1.919,20.662,27.141,27.141,0,0,1-7.674,1.1Zm16.3.622a11.34,11.34,0,1,1,11.34-11.339,11.34,11.34,0,0,1-11.34,11.339Zm9.3-2.366.7.7-.325.325-.7-.7q.165-.16.325-.325Zm.337,3.31,2.648-2.649.816.816-2.649,2.648ZM70,69.632a1.875,1.875,0,0,1-2.649,0L62.413,64.7l2.649-2.648L70,66.984A1.873,1.873,0,0,1,70,69.632Z" transform="translate(0)"/><path class="a" d="M281.164,271.813a9.848,9.848,0,1,0,9.848,9.848A9.848,9.848,0,0,0,281.164,271.813Zm0,1.589a8.207,8.207,0,0,1,4.476,1.324,5.566,5.566,0,0,0-.4.744l-.173.424a2.939,2.939,0,0,1-2.665,1.77h-2.882a.569.569,0,0,1-.542-.521l-.115-1.167a5.535,5.535,0,0,0-.618-2.041A8.214,8.214,0,0,1,281.164,273.4Zm-8.259,8.259a8.26,8.26,0,0,1,3.92-7.023,3.9,3.9,0,0,1,.459,1.483l.115,1.181a2.152,2.152,0,0,0,2.123,1.951H282.4a4.529,4.529,0,0,0,4.12-2.721l.173-.41a4.228,4.228,0,0,1,.2-.395,8.291,8.291,0,0,1,1.786,2.529,27.1,27.1,0,0,1-10.986,10.9A8.269,8.269,0,0,1,272.905,281.661Zm8.259,8.259a8.278,8.278,0,0,1-1.391-.119,28.647,28.647,0,0,0,9.542-9.467,8.254,8.254,0,0,1-8.151,9.587Z" transform="translate(-230.325 -231.185)"/></g></svg>