<svg xmlns="http://www.w3.org/2000/svg" width="66.664" height="67.992" viewBox="0 0 66.664 67.992"><defs><style>.a{fill:#7bc447;}</style></defs><g transform="translate(831.201 -476.484)"><path class="a" d="M-819.306,537.343c-3.148-7.457-6.245-14.792-9.34-22.127-1.154-2.735-.732-3.732,2.047-4.873,1.79-.735,3.566-1.508,5.372-2.2a1.607,1.607,0,0,0,1.172-1.523c.57-5.21,1.187-10.415,1.818-15.618a3.77,3.77,0,0,1,3.967-3.609c1.053-.039,2.108-.007,3.393-.007,0-1.094-.023-2.088,0-3.081.053-1.917.954-2.795,2.888-2.812,1.891-.017,3.782,0,5.87,0,0-.827,0-1.557,0-2.288.015-2.052.654-2.7,2.663-2.712q1.654-.007,3.308,0c1.932.01,2.577.668,2.6,2.642.006.7,0,1.405,0,2.357,1.991,0,3.91-.055,5.824.029a3.335,3.335,0,0,1,2.04.653,3.773,3.773,0,0,1,.879,2.085,22.376,22.376,0,0,1,.036,3.13c1.211,0,2.261-.026,3.31.005a3.814,3.814,0,0,1,4.061,3.664c.2,1.528.427,3.061.481,4.6.016.466-.5.95-.776,1.426-.37-.4-.971-.75-1.068-1.206a41.824,41.824,0,0,1-.553-4.187c-.185-1.716-.723-2.238-2.443-2.238-10.762,0-21.524.01-32.286-.013-1.27,0-2.084.5-2.232,1.737-.6,4.985-1.138,9.977-1.695,14.967a2.969,2.969,0,0,0,.06.522c.391-.126.751-.216,1.09-.355,5.819-2.389,11.645-4.762,17.444-7.2a3.555,3.555,0,0,1,3.014-.036c5.836,2.462,11.7,4.852,17.559,7.263.317.13.652.218,1.2.4-.175-1.618-.334-3.085-.493-4.552a3.74,3.74,0,0,1-.108-1.3,4.564,4.564,0,0,1,.77-1.179c.394.319,1.07.589,1.135.966a51.644,51.644,0,0,1,.675,5.636,1.879,1.879,0,0,0,1.385,1.935c1.818.659,3.592,1.44,5.382,2.174,2.484,1.02,2.977,2.187,1.942,4.64q-4.465,10.577-8.94,21.151c-.137.323-.261.652-.444,1.113a8.468,8.468,0,0,0,6.392.015A24.259,24.259,0,0,1-766,536.208a1.7,1.7,0,0,1,1.449.807c.237.811-.508,1.01-1.22,1.161a18.587,18.587,0,0,0-3.148.9,10.283,10.283,0,0,1-8.465-.023,9.212,9.212,0,0,0-8.027.005,9.824,9.824,0,0,1-8.446-.017,9.017,9.017,0,0,0-7.9-.008,9.955,9.955,0,0,1-8.571-.007,9.1,9.1,0,0,0-7.906.009,10.349,10.349,0,0,1-8.586.01c-1-.413-2.124-.534-3.134-.932-.474-.186-1.127-.7-1.149-1.089-.048-.85.717-1.04,1.426-.866a32.9,32.9,0,0,1,3.783,1.1A9.011,9.011,0,0,0-819.306,537.343Zm1.849-.8a11.984,11.984,0,0,1,8.509.852,7.474,7.474,0,0,0,6.291-.168,10.9,10.9,0,0,1,9.684.017,7.4,7.4,0,0,0,6.049.235c2.841-1.183,5.661-1.872,8.736-.936l8.2-19.447c-.309-.152-.534-.284-.773-.378-8.76-3.44-17.516-6.889-26.293-10.281a2.818,2.818,0,0,0-1.846.109c-5.868,2.259-11.717,4.571-17.57,6.868-.287.112-.585.349-.854.318a10.838,10.838,0,0,1-1.6-.418c.278-.468.53-.955.85-1.392.111-.151.391-.18.6-.261,6.18-2.428,12.352-4.879,18.554-7.25a3.393,3.393,0,0,1,2.232.014c7.919,3.052,15.811,6.174,23.712,9.274,1.252.491,2.512.96,3.752,1.433,1.1-2.147,1.094-2.262-.247-2.813q-13.727-5.647-27.472-11.25a2.771,2.771,0,0,0-1.847.033c-2.426.917-4.814,1.938-7.214,2.924-6.672,2.741-13.334,5.5-20.022,8.2-1.12.452-1.465,1-.837,2.058.152.256.286.522.464.846a31.912,31.912,0,0,1,3.36-1.258,1.747,1.747,0,0,1,1.543.385c.437.715-.141,1.179-.841,1.449-1.1.424-2.186.881-3.342,1.35Zm30.728-49.208c0-1.048-.017-1.964.005-2.879.018-.744-.357-1.026-1.051-1.026-6.7,0-13.39-.007-20.085.046a1.357,1.357,0,0,0-1.006.841,22.249,22.249,0,0,0-.048,3.019Zm-13.385-5.975h4.521V478.63h-4.521Z" transform="translate(-0.069)"/><path class="a" d="M-789.761,722.031A31.5,31.5,0,0,1-794,720.842a9.1,9.1,0,0,0-7.778.015,10.037,10.037,0,0,1-8.687,0,8.869,8.869,0,0,0-7.768.016,10.364,10.364,0,0,1-8.7,0c-1-.423-2.124-.539-3.137-.936-.464-.182-1.083-.675-1.126-1.08-.086-.825.68-.95,1.316-.815a21.406,21.406,0,0,1,3.669.963,8.831,8.831,0,0,0,7.29-.021,10.766,10.766,0,0,1,9.2.012,8.575,8.575,0,0,0,7.282-.031,10.7,10.7,0,0,1,9.08,0,8.667,8.667,0,0,0,7.4-.009,10.636,10.636,0,0,1,9.075.029,8.8,8.8,0,0,0,7.288.019,14.962,14.962,0,0,1,3.676-.921c.417-.057.918.5,1.38.774-.389.37-.715.9-1.178,1.079-1.052.416-2.207.571-3.254,1a10.135,10.135,0,0,1-8.333.036,9.58,9.58,0,0,0-8.395.016A24.658,24.658,0,0,1-789.761,722.031Z" transform="translate(0 -177.554)"/><path class="a" d="M-763.164,532.165c.924,0,1.848-.023,2.771.005,1.359.043,1.915.6,1.946,1.931.019.835-.01,1.672,0,2.507A1.673,1.673,0,0,1-760.2,538.5c-2.065.07-4.137.09-6.2,0-1.585-.072-1.918-.973-1.785-4.262.059-1.455.586-2.021,1.983-2.059C-765.188,532.143-764.176,532.165-763.164,532.165Zm-2.9,4.267h5.528v-2.248h-5.528Z" transform="translate(-46.32 -40.937)"/><path class="a" d="M-674.513,532.164c.88,0,1.76-.011,2.639,0a2.372,2.372,0,0,1,1.039.111c1.98,1.078,1.014,2.96,1.112,4.512a1.615,1.615,0,0,1-1.785,1.717c-2.023.041-4.048.054-6.07,0a1.713,1.713,0,0,1-1.83-1.948c.014-.88-.011-1.76,0-2.639a1.6,1.6,0,0,1,1.723-1.742C-676.625,532.137-675.568,532.165-674.513,532.164Zm-2.836,4.242h5.526v-2.2h-5.526Z" transform="translate(-111.618 -40.936)"/><path class="a" d="M-718.826,532.164c.966,0,1.933-.021,2.9.006,1.36.038,1.916.581,1.96,1.913.027.834-.01,1.669,0,2.5a1.7,1.7,0,0,1-1.847,1.922c-1.976.045-3.954.04-5.93,0a1.7,1.7,0,0,1-1.882-1.887c0-.835-.02-1.67,0-2.5.033-1.363.566-1.914,1.905-1.951C-720.759,532.142-719.792,532.163-718.826,532.164Zm2.8,4.247v-2.192h-5.581v2.192Z" transform="translate(-79.094 -40.936)"/></g></svg>